<?xml version="1.0" encoding="UTF-8" standalone="no"?>
<!DOCTYPE svg PUBLIC "-//W3C//DTD SVG 1.1//EN" "http://www.w3.org/Graphics/SVG/1.1/DTD/svg11.dtd">
<svg version="1.1" xmlns="http://www.w3.org/2000/svg" xmlns:xlink="http://www.w3.org/1999/xlink" preserveAspectRatio="xMidYMid meet" viewBox="0 0 640 640" width="640" height="640"><defs><path d="M86.86 244.99C86.86 244.99 86.86 244.99 86.86 244.99C86.86 285.63 86.86 308.21 86.86 312.73C86.86 312.73 86.86 312.73 86.86 312.73C75.39 312.73 69.01 312.73 67.74 312.73C67.74 312.73 67.74 312.73 67.74 312.73C67.74 272.08 67.74 249.5 67.74 244.99C67.74 244.99 67.74 244.99 67.74 244.99C79.21 244.99 85.58 244.99 86.86 244.99Z" id="e1Z7hD64jw"></path><path d="M131.74 302.34C131.68 302.23 131.41 301.67 130.91 300.68C129.91 298.93 129.36 297.96 129.25 297.77C128 295.69 126.75 294.03 125.51 291.95C124.68 291.12 124.26 290.29 123.43 289.45C122.6 288.62 122.18 287.79 121.35 286.96C120.52 286.13 119.69 285.3 118.86 284.47C118.44 284.05 118.03 283.64 117.61 283.22C117.49 283.14 116.49 282.47 116.36 282.39C111.79 278.65 107.22 275.32 102.23 273.25C102.23 274.45 102.23 284.09 102.23 285.3C104.31 286.96 106.39 288.62 108.47 290.7C108.55 290.78 109.22 291.45 109.3 291.53C109.71 291.95 109.71 292.36 110.13 292.36C110.55 293.19 111.38 293.61 111.79 294.44C112.21 295.27 113.04 295.69 113.45 296.52C113.87 297.35 114.29 298.18 115.12 298.6C115.95 300.26 116.78 301.92 117.61 303.17C117.69 303.34 118.11 304.17 118.86 305.66C119.11 306.41 119.25 306.83 119.27 306.91C119.27 307.32 119.69 307.74 119.69 308.16C121.77 314.81 122.6 322.29 121.77 328.94C120.94 335.58 118.86 341.4 116.36 345.97C115.95 346.39 115.95 347.22 115.53 347.64C115.12 348.05 114.7 348.47 114.7 349.3C113.87 350.13 113.45 351.38 112.62 352.21C111.38 353.87 110.13 355.12 108.88 356.36C107.64 357.19 107.22 358.44 106.39 358.86C105.97 359.27 105.56 359.69 105.56 359.69C105.56 359.69 105.14 360.1 103.9 360.94C103.48 361.35 102.65 361.77 101.82 362.18C100.99 362.6 100.16 363.43 99.32 363.84C95.17 366.34 88.94 368.83 81.04 369.66C80.62 369.66 80.21 369.66 79.38 369.66C78.96 369.66 78.55 369.66 77.71 369.66C76.88 369.66 75.64 369.66 74.39 369.66C72.31 369.25 70.23 369.25 67.74 368.83C63.17 368 59.01 366.34 54.86 363.84C50.7 361.35 46.96 358.03 44.05 354.29C41.14 350.55 38.65 345.97 36.99 341.4C35.32 336.83 34.91 331.84 35.32 327.27C35.74 322.7 36.57 318.13 38.23 313.97C39.9 309.82 42.39 306.49 44.88 303.58C47.38 300.68 50.29 298.18 53.19 296.52C53.61 296.1 54.03 296.1 54.44 295.69C54.44 291.66 54.44 259.41 54.44 255.38C47.79 257.45 39.9 260.78 32.42 266.6C27.01 270.75 22.03 275.74 17.45 281.97C12.88 288.21 9.14 295.27 6.65 303.17C4.16 311.06 2.91 319.38 3.32 327.69C3.74 336 5.82 344.73 9.14 352.21C12.47 360.1 17.45 367.17 23.27 372.99C29.09 378.81 35.74 383.38 42.81 387.12C49.87 390.44 56.94 392.52 64 393.35C67.32 393.77 71.06 393.77 73.97 393.77C75.64 393.77 77.3 393.35 78.96 393.35C79.79 393.35 80.62 393.35 81.45 392.94C82.29 392.94 83.12 392.52 83.53 392.52C95.58 390.44 104.73 385.45 110.13 381.3C111.38 380.47 112.62 379.22 113.87 378.39C115.12 377.56 115.95 376.73 116.36 376.31C117.61 375.06 118.44 374.23 118.44 374.23C118.44 374.23 118.86 373.82 119.69 372.99C120.52 372.16 121.35 370.91 123.01 369.25C124.26 367.58 125.92 365.51 127.58 363.01C128.42 361.77 129.25 360.52 130.08 358.86C130.49 358.03 130.91 357.61 131.32 356.78C131.74 355.95 132.16 355.12 132.57 354.29C135.48 347.64 137.56 339.32 137.56 330.6C137.97 321.87 136.31 312.73 132.57 304C132.16 303.58 132.16 302.75 131.74 302.34Z" id="a2xDCMiR61"></path><path d="M171.22 317.3C172.88 315.64 174.96 314.39 177.04 313.56C179.12 312.31 181.19 311.9 183.27 311.06C185.35 310.65 187.84 310.23 190.75 310.23C194.91 310.23 198.23 311.06 201.56 312.31C204.47 313.56 207.38 315.64 209.45 318.13C211.53 320.62 213.19 323.53 214.03 326.86C215.27 330.18 215.69 333.92 215.69 338.08C215.69 341.21 215.69 356.86 215.69 385.04L202.81 385.04C202.81 356.86 202.81 341.21 202.81 338.08C202.81 332.68 201.56 328.1 199.06 325.19C196.57 322.29 192.83 320.62 187.43 320.62C183.69 320.62 179.95 321.45 176.62 323.53C173.3 325.61 170.39 327.69 167.48 331.01C167.48 334.64 167.48 352.79 167.48 385.45L154.6 385.45L154.6 311.48C159.34 311.48 161.97 311.48 162.49 311.48C164.16 311.48 165.4 312.31 165.82 313.97C165.85 314.53 165.98 317.3 166.23 322.29C168.45 320.07 170.11 318.41 171.22 317.3Z" id="bZYOHUa0N"></path><path d="M248.52 385.04L235.64 385.04L235.64 277.82L248.52 277.82L248.52 385.04Z" id="a2PoYqltmX"></path><path d="M277.04 278.69L277.38 278.73L277.72 278.79L278.06 278.87L278.4 278.95L278.74 279.05L279.08 279.15L279.42 279.26L279.76 279.37L280.1 279.48L280.43 279.6L280.75 279.75L281.04 279.9L281.32 280.08L281.59 280.27L281.84 280.46L282.09 280.67L282.32 280.89L282.56 281.11L282.79 281.33L283.01 281.56L283.24 281.79L283.46 282.01L283.68 282.25L283.9 282.49L284.11 282.73L284.31 282.99L284.49 283.25L284.67 283.53L284.83 283.83L284.97 284.14L285.09 284.47L285.2 284.81L285.32 285.15L285.42 285.49L285.52 285.83L285.62 286.17L285.7 286.51L285.78 286.85L285.84 287.19L285.88 287.53L285.91 287.87L285.92 288.21L285.91 288.55L285.88 288.89L285.84 289.22L285.78 289.55L285.7 289.87L285.62 290.18L285.52 290.48L285.42 290.77L285.32 291.04L285.2 291.3L285.09 291.53L284.97 291.86L284.83 292.17L284.67 292.47L284.49 292.75L284.31 293.01L284.11 293.27L283.9 293.51L283.68 293.75L283.46 293.99L283.24 294.21L283.01 294.44L282.79 294.67L282.56 294.89L282.32 295.11L282.09 295.33L281.84 295.54L281.59 295.73L281.32 295.92L281.04 296.1L280.75 296.25L280.43 296.4L280.1 296.52L279.76 296.63L279.42 296.74L279.08 296.85L278.74 296.95L278.4 297.05L278.06 297.13L277.72 297.21L277.38 297.27L277.04 297.31L276.7 297.34L276.36 297.35L276.02 297.34L275.69 297.31L275.35 297.27L275.02 297.21L274.7 297.13L274.39 297.05L274.09 296.95L273.8 296.85L273.53 296.74L273.28 296.63L273.04 296.52L272.71 296.4L272.4 296.25L272.1 296.1L271.82 295.92L271.56 295.73L271.3 295.54L271.06 295.33L270.82 295.11L270.59 294.89L270.36 294.67L270.13 294.44L269.9 294.21L269.68 293.99L269.46 293.75L269.24 293.51L269.04 293.27L268.84 293.01L268.65 292.75L268.48 292.47L268.32 292.17L268.18 291.86L268.05 291.53L267.94 291.2L267.83 290.89L267.72 290.59L267.62 290.3L267.52 290.01L267.44 289.73L267.37 289.44L267.31 289.15L267.26 288.85L267.23 288.54L267.22 288.21L267.23 287.87L267.26 287.53L267.31 287.19L267.37 286.85L267.44 286.51L267.52 286.17L267.62 285.83L267.72 285.49L267.83 285.15L267.94 284.81L268.05 284.47L268.18 284.14L268.32 283.83L268.48 283.53L268.65 283.25L268.84 282.99L269.04 282.73L269.24 282.49L269.46 282.25L269.68 282.01L269.9 281.79L270.13 281.56L270.36 281.33L270.59 281.11L270.82 280.89L271.06 280.67L271.3 280.46L271.56 280.27L271.82 280.08L272.1 279.9L272.4 279.75L272.71 279.6L273.04 279.48L273.37 279.37L273.68 279.26L273.98 279.15L274.27 279.05L274.56 278.95L274.84 278.87L275.13 278.79L275.42 278.73L275.72 278.69L276.03 278.66L276.36 278.65L276.7 278.66L277.04 278.69Z" id="a2x2cR363Q"></path><path d="M321.66 317.3C323.32 315.64 325.4 314.39 327.48 313.56C329.56 312.31 331.64 311.9 333.71 311.06C335.79 310.65 338.29 310.23 341.19 310.23C345.35 310.23 348.68 311.06 352 312.31C354.91 313.56 357.82 315.64 359.9 318.13C361.97 320.62 363.64 323.53 364.47 326.86C365.71 330.18 366.13 333.92 366.13 338.08C366.13 341.21 366.13 356.86 366.13 385.04L353.25 385.04C353.25 356.86 353.25 341.21 353.25 338.08C353.25 332.68 352 328.1 349.51 325.19C347.01 322.29 343.27 320.62 337.87 320.62C334.13 320.62 330.39 321.45 327.06 323.53C323.74 325.61 320.83 327.69 317.92 331.01C317.92 334.64 317.92 352.79 317.92 385.45L305.04 385.45L305.04 311.48C309.78 311.48 312.41 311.48 312.94 311.48C314.6 311.48 315.84 312.31 316.26 313.97C316.29 314.53 316.43 317.3 316.68 322.29C318.89 320.07 320.55 318.41 321.66 317.3Z" id="devuKXD0z"></path><path d="M416.68 309.41L417.01 309.42L417.35 309.43L417.68 309.44L418 309.46L418.33 309.48L418.65 309.5L418.97 309.52L419.29 309.55L419.6 309.58L419.91 309.62L420.22 309.65L420.53 309.69L420.84 309.73L421.14 309.77L421.44 309.82L421.74 309.87L422.04 309.92L422.34 309.97L422.63 310.03L422.93 310.09L423.22 310.15L423.51 310.21L423.8 310.28L424.09 310.34L424.38 310.41L424.66 310.48L424.95 310.55L425.23 310.63L425.52 310.71L425.8 310.79L426.08 310.87L426.37 310.95L426.65 311.03L426.93 311.12L427.21 311.21L427.49 311.3L427.77 311.39L428.05 311.48L428.33 311.61L428.61 311.73L428.89 311.86L429.16 311.99L429.43 312.12L429.71 312.26L429.98 312.39L430.24 312.53L430.51 312.67L430.77 312.81L431.03 312.95L431.29 313.09L431.55 313.23L431.81 313.38L432.06 313.53L432.31 313.67L432.56 313.83L432.81 313.98L433.06 314.13L433.3 314.29L433.54 314.44L433.78 314.6L434.01 314.76L434.25 314.92L434.48 315.08L434.7 315.25L434.93 315.41L435.15 315.58L435.37 315.75L435.59 315.92L435.81 316.09L436.02 316.27L436.23 316.44L436.43 316.62L436.64 316.8L436.84 316.98L437.04 317.16L437.23 317.34L437.42 317.53L437.61 317.71L437.8 317.9L437.98 318.1L438.17 318.3L438.36 318.5L438.54 318.71L438.73 318.92L438.91 319.13L439.1 319.35L439.28 319.58L439.46 319.81L439.64 320.04L439.82 320.27L440 320.51L440.18 320.76L440.35 321L440.52 321.25L440.69 321.51L440.86 321.76L441.03 322.02L441.19 322.29L441.36 322.55L441.52 322.82L441.67 323.09L441.83 323.37L441.98 323.65L442.13 323.93L442.28 324.21L442.42 324.5L442.56 324.79L442.69 325.08L442.83 325.37L442.96 325.67L443.08 325.96L443.2 326.26L443.32 326.57L443.43 326.87L443.54 327.18L443.65 327.48L443.75 327.79L443.84 328.1L443.97 328.42L444.09 328.73L444.2 329.05L444.32 329.36L444.43 329.68L444.54 330L444.64 330.33L444.74 330.65L444.84 330.98L444.94 331.31L445.03 331.64L445.12 331.97L445.2 332.3L445.28 332.64L445.36 332.98L445.44 333.32L445.51 333.66L445.58 334L445.65 334.35L445.71 334.7L445.78 335.05L445.83 335.41L445.89 335.76L445.94 336.12L445.99 336.48L446.03 336.85L446.07 337.22L446.11 337.58L446.15 337.96L446.18 338.33L446.21 338.71L446.24 339.09L446.26 339.47L446.28 339.86L446.3 340.25L446.31 340.64L446.32 341.03L446.33 341.43L446.34 341.83L446.34 342.23L446.34 342.39L446.33 342.54L446.33 342.69L446.33 342.83L446.32 342.97L446.31 343.11L446.3 343.25L446.29 343.38L446.28 343.51L446.27 343.64L446.25 343.77L446.24 343.89L446.22 344.01L446.2 344.13L446.18 344.24L446.16 344.35L446.14 344.46L446.12 344.57L446.1 344.68L446.08 344.78L446.05 344.88L446.03 344.98L446 345.07L445.98 345.17L445.95 345.26L445.93 345.35L445.9 345.43L445.87 345.52L445.84 345.6L445.81 345.68L445.78 345.76L445.75 345.84L445.72 345.91L445.69 345.99L445.66 346.06L445.63 346.13L445.6 346.2L445.57 346.26L445.54 346.33L445.51 346.39L445.47 346.45L445.44 346.51L445.41 346.56L445.37 346.61L445.33 346.66L445.29 346.71L445.25 346.75L445.21 346.8L445.16 346.83L445.12 346.87L445.07 346.9L445.02 346.94L444.97 346.97L444.92 346.99L444.86 347.02L444.81 347.04L444.75 347.06L444.69 347.08L444.63 347.1L444.57 347.12L444.51 347.13L444.44 347.15L444.38 347.16L444.31 347.17L444.24 347.18L444.17 347.19L444.1 347.19L444.02 347.2L443.95 347.2L443.87 347.21L443.79 347.21L443.71 347.21L443.63 347.22L443.55 347.22L443.46 347.22L443.37 347.22L443.29 347.22L443.2 347.22L443.11 347.22L443.01 347.22L393.97 347.22L393.98 347.56L393.98 347.9L393.99 348.24L394 348.58L394.01 348.91L394.03 349.25L394.05 349.58L394.07 349.91L394.1 350.24L394.12 350.56L394.15 350.89L394.19 351.21L394.22 351.53L394.26 351.85L394.3 352.17L394.35 352.48L394.39 352.79L394.44 353.1L394.49 353.41L394.55 353.71L394.6 354.02L394.66 354.32L394.72 354.62L394.78 354.91L394.85 355.2L394.91 355.49L394.98 355.78L395.05 356.07L395.13 356.35L395.2 356.63L395.28 356.91L395.36 357.18L395.44 357.45L395.52 357.72L395.6 357.99L395.69 358.25L395.78 358.51L395.87 358.77L395.96 359.02L396.05 359.27L396.15 359.52L396.24 359.77L396.34 360.01L396.44 360.26L396.54 360.5L396.64 360.74L396.74 360.98L396.85 361.22L396.95 361.45L397.06 361.69L397.17 361.92L397.28 362.15L397.38 362.38L397.5 362.61L397.61 362.84L397.72 363.06L397.83 363.29L397.95 363.51L398.07 363.73L398.18 363.95L398.3 364.17L398.42 364.38L398.54 364.6L398.66 364.81L398.78 365.02L398.9 365.23L399.02 365.44L399.14 365.64L399.26 365.85L399.38 366.05L399.51 366.25L399.63 366.45L399.75 366.65L399.88 366.85L400 367.05L400.13 367.24L400.25 367.43L400.37 367.62L400.5 367.81L400.62 368L400.78 368.19L400.94 368.37L401.1 368.55L401.26 368.72L401.42 368.9L401.59 369.07L401.75 369.23L401.92 369.4L402.09 369.56L402.26 369.71L402.43 369.87L402.61 370.02L402.78 370.17L402.96 370.31L403.14 370.45L403.32 370.59L403.5 370.73L403.68 370.86L403.87 370.99L404.05 371.12L404.24 371.24L404.43 371.36L404.62 371.48L404.81 371.59L405.01 371.7L405.2 371.81L405.4 371.91L405.6 372.01L405.8 372.11L406 372.21L406.2 372.3L406.41 372.39L406.61 372.47L406.82 372.56L407.03 372.64L407.24 372.71L407.46 372.79L407.67 372.86L407.89 372.92L408.1 372.99L408.32 373.05L408.54 373.11L408.76 373.17L408.98 373.24L409.2 373.3L409.42 373.36L409.64 373.42L409.86 373.48L410.08 373.54L410.3 373.6L410.52 373.66L410.74 373.71L410.97 373.77L411.19 373.82L411.42 373.88L411.65 373.93L411.88 373.98L412.11 374.03L412.34 374.08L412.57 374.13L412.81 374.18L413.04 374.22L413.28 374.26L413.52 374.3L413.76 374.34L414 374.38L414.25 374.41L414.5 374.45L414.75 374.48L415 374.51L415.25 374.53L415.51 374.56L415.77 374.58L416.03 374.6L416.3 374.61L416.56 374.63L416.83 374.64L417.11 374.64L417.38 374.65L417.66 374.65L417.91 374.65L418.16 374.65L418.4 374.64L418.65 374.64L418.89 374.63L419.13 374.62L419.37 374.61L419.6 374.6L419.84 374.59L420.07 374.57L420.3 374.56L420.53 374.54L420.76 374.52L420.98 374.5L421.21 374.47L421.43 374.45L421.64 374.42L421.86 374.4L422.07 374.37L422.29 374.34L422.49 374.31L422.7 374.27L422.91 374.24L423.11 374.2L423.31 374.16L423.5 374.12L423.7 374.08L423.89 374.04L424.08 373.99L424.27 373.95L424.45 373.9L424.63 373.85L424.81 373.8L424.98 373.75L425.16 373.69L425.33 373.64L425.49 373.58L425.66 373.52L425.82 373.46L425.97 373.4L426.16 373.34L426.34 373.28L426.53 373.22L426.71 373.15L426.89 373.09L427.07 373.03L427.24 372.97L427.42 372.9L427.59 372.84L427.77 372.78L427.94 372.72L428.11 372.65L428.27 372.59L428.44 372.53L428.6 372.47L428.77 372.41L428.93 372.34L429.09 372.28L429.25 372.22L429.4 372.16L429.56 372.09L429.71 372.03L429.86 371.97L430.01 371.91L430.16 371.84L430.31 371.78L430.46 371.72L430.6 371.66L430.74 371.59L430.88 371.53L431.02 371.47L431.16 371.41L431.3 371.35L431.43 371.28L431.56 371.22L431.7 371.16L431.83 371.1L431.96 371.03L432.08 370.97L432.21 370.91L432.33 370.85L432.45 370.78L432.57 370.72L432.69 370.66L432.81 370.6L432.93 370.54L433.04 370.47L433.16 370.41L433.27 370.35L433.38 370.29L433.49 370.22L433.6 370.16L433.71 370.1L433.82 370.04L433.92 369.97L434.03 369.91L434.13 369.85L434.24 369.79L434.34 369.72L434.44 369.66L434.54 369.6L434.64 369.54L434.74 369.48L434.84 369.41L434.94 369.35L435.04 369.29L435.13 369.23L435.23 369.16L435.33 369.1L435.42 369.04L435.52 368.98L435.61 368.91L435.71 368.85L435.8 368.79L435.9 368.73L435.99 368.66L436.08 368.6L436.18 368.54L436.27 368.48L436.36 368.42L436.46 368.35L436.55 368.29L436.64 368.24L436.73 368.18L436.81 368.12L436.9 368.07L436.98 368.02L437.07 367.97L437.15 367.92L437.23 367.87L437.31 367.82L437.38 367.78L437.46 367.74L437.54 367.7L437.61 367.66L437.69 367.62L437.76 367.58L437.83 367.55L437.9 367.51L437.97 367.48L438.04 367.45L438.11 367.42L438.18 367.39L438.25 367.37L438.32 367.34L438.38 367.32L438.45 367.3L438.51 367.28L438.58 367.26L438.64 367.25L438.71 367.23L438.77 367.22L438.83 367.21L438.9 367.2L438.96 367.19L439.02 367.18L439.09 367.18L439.15 367.17L439.21 367.17L439.27 367.17L439.37 367.17L439.46 367.17L439.55 367.18L439.63 367.18L439.72 367.19L439.81 367.2L439.89 367.21L439.97 367.22L440.05 367.23L440.13 367.25L440.21 367.26L440.28 367.28L440.36 367.3L440.43 367.32L440.5 367.34L440.57 367.37L440.64 367.39L440.7 367.42L440.77 367.45L440.83 367.48L440.89 367.51L440.95 367.55L441.01 367.58L441.07 367.62L441.12 367.66L441.18 367.7L441.23 367.74L441.28 367.78L441.33 367.82L441.38 367.87L441.42 367.92L441.47 367.97L441.51 368.02L441.55 368.07L441.59 368.12L441.63 368.18L441.67 368.24L441.7 368.29L441.73 368.35L441.77 368.42L445.51 374.65L445.34 374.83L445.18 375.02L445.01 375.2L444.85 375.37L444.69 375.55L444.53 375.72L444.37 375.88L444.21 376.05L444.05 376.21L443.9 376.36L443.74 376.52L443.59 376.67L443.43 376.82L443.28 376.96L443.13 377.1L442.98 377.24L442.83 377.38L442.68 377.51L442.54 377.64L442.39 377.77L442.24 377.89L442.1 378.01L441.96 378.13L441.82 378.24L441.68 378.35L441.54 378.46L441.4 378.56L441.26 378.66L441.12 378.76L440.99 378.86L440.85 378.95L440.72 379.04L440.59 379.12L440.46 379.21L440.32 379.29L440.2 379.36L440.07 379.44L439.94 379.51L439.81 379.57L439.69 379.64L439.53 379.73L439.37 379.82L439.21 379.92L439.05 380.01L438.89 380.1L438.73 380.2L438.56 380.29L438.4 380.38L438.23 380.47L438.06 380.56L437.89 380.66L437.72 380.75L437.54 380.84L437.37 380.93L437.2 381.02L437.02 381.11L436.85 381.19L436.67 381.28L436.49 381.37L436.31 381.45L436.13 381.54L435.95 381.62L435.77 381.71L435.59 381.79L435.41 381.87L435.22 381.95L435.04 382.03L434.86 382.11L434.67 382.19L434.49 382.27L434.3 382.34L434.12 382.42L433.93 382.49L433.74 382.56L433.56 382.63L433.37 382.7L433.18 382.77L433 382.83L432.81 382.9L432.62 382.96L432.44 383.02L432.25 383.09L432.06 383.15L431.87 383.21L431.69 383.27L431.5 383.33L431.31 383.4L431.12 383.46L430.94 383.52L430.75 383.58L430.56 383.64L430.37 383.7L430.18 383.76L429.99 383.82L429.8 383.87L429.6 383.93L429.41 383.99L429.22 384.05L429.03 384.1L428.83 384.16L428.64 384.21L428.44 384.26L428.24 384.32L428.05 384.37L427.85 384.42L427.65 384.47L427.45 384.52L427.24 384.56L427.04 384.61L426.84 384.66L426.63 384.7L426.43 384.74L426.22 384.78L426.01 384.83L425.8 384.86L425.59 384.9L425.37 384.94L425.16 384.97L424.94 385.01L424.73 385.04L424.51 385.07L424.29 385.1L424.08 385.13L423.87 385.16L423.66 385.19L423.44 385.22L423.24 385.25L423.03 385.28L422.82 385.31L422.62 385.34L422.41 385.37L422.21 385.4L422.01 385.43L421.81 385.46L421.61 385.48L421.41 385.51L421.21 385.54L421.01 385.56L420.82 385.59L420.62 385.61L420.43 385.63L420.24 385.66L420.04 385.68L419.85 385.7L419.66 385.72L419.47 385.74L419.28 385.75L419.09 385.77L418.9 385.78L418.71 385.8L418.52 385.81L418.33 385.82L418.14 385.83L417.95 385.84L417.77 385.85L417.58 385.86L417.39 385.86L417.21 385.87L417.02 385.87L416.83 385.87L416.46 385.87L416.08 385.86L415.71 385.86L415.34 385.85L414.96 385.83L414.59 385.81L414.22 385.79L413.85 385.77L413.47 385.74L413.1 385.71L412.73 385.68L412.37 385.65L412 385.61L411.63 385.56L411.26 385.52L410.9 385.47L410.54 385.42L410.17 385.37L409.81 385.31L409.45 385.25L409.1 385.18L408.74 385.12L408.39 385.05L408.03 384.97L407.68 384.9L407.33 384.82L406.99 384.73L406.64 384.65L406.3 384.56L405.96 384.47L405.62 384.37L405.29 384.27L404.96 384.17L404.62 384.07L404.3 383.96L403.97 383.85L403.65 383.74L403.33 383.62L403.01 383.5L402.7 383.38L402.39 383.25L402.08 383.12L401.77 382.99L401.47 382.85L401.16 382.71L400.86 382.57L400.56 382.43L400.26 382.28L399.96 382.13L399.66 381.97L399.37 381.82L399.07 381.66L398.78 381.49L398.49 381.33L398.2 381.16L397.91 380.98L397.63 380.81L397.34 380.63L397.06 380.45L396.78 380.26L396.5 380.07L396.22 379.88L395.94 379.68L395.67 379.49L395.4 379.29L395.12 379.08L394.85 378.87L394.58 378.66L394.32 378.45L394.05 378.23L393.79 378.01L393.53 377.79L393.26 377.57L393 377.34L392.75 377.1L392.49 376.87L392.24 376.63L391.98 376.39L391.73 376.14L391.48 375.9L391.23 375.65L390.99 375.39L390.75 375.13L390.52 374.87L390.29 374.61L390.06 374.34L389.84 374.07L389.63 373.8L389.41 373.53L389.2 373.25L388.99 372.96L388.79 372.68L388.59 372.39L388.39 372.1L388.2 371.81L388.01 371.51L387.82 371.21L387.64 370.9L387.45 370.6L387.27 370.29L387.09 369.97L386.92 369.66L386.75 369.34L386.57 369.01L386.4 368.69L386.24 368.36L386.07 368.03L385.9 367.69L385.74 367.35L385.58 367.01L385.42 366.67L385.26 366.32L385.1 365.97L384.94 365.62L384.78 365.26L384.62 364.9L384.47 364.54L384.31 364.17L384.16 363.8L384 363.43L383.88 363.05L383.76 362.68L383.64 362.3L383.53 361.92L383.42 361.54L383.31 361.15L383.2 360.77L383.1 360.38L383 359.99L382.91 359.6L382.82 359.2L382.73 358.81L382.64 358.41L382.56 358L382.48 357.6L382.4 357.19L382.33 356.78L382.26 356.37L382.19 355.95L382.13 355.53L382.07 355.11L382.01 354.68L381.96 354.26L381.91 353.82L381.86 353.39L381.81 352.95L381.77 352.51L381.73 352.06L381.7 351.61L381.66 351.16L381.63 350.7L381.61 350.24L381.58 349.77L381.56 349.3L381.55 348.83L381.53 348.35L381.52 347.87L381.51 347.38L381.51 346.89L381.51 346.39L381.51 346.02L381.51 345.64L381.52 345.27L381.53 344.89L381.55 344.52L381.56 344.15L381.58 343.77L381.61 343.4L381.63 343.03L381.66 342.66L381.7 342.28L381.73 341.91L381.77 341.54L381.81 341.17L381.86 340.8L381.91 340.43L381.96 340.06L382.01 339.7L382.07 339.33L382.13 338.96L382.19 338.6L382.26 338.23L382.33 337.87L382.4 337.5L382.48 337.14L382.56 336.78L382.64 336.42L382.73 336.06L382.82 335.7L382.91 335.34L383 334.99L383.1 334.63L383.2 334.28L383.31 333.93L383.42 333.58L383.53 333.23L383.64 332.88L383.76 332.53L383.88 332.19L384 331.84L384.13 331.5L384.25 331.16L384.38 330.83L384.51 330.5L384.64 330.17L384.78 329.84L384.91 329.52L385.05 329.2L385.19 328.88L385.33 328.56L385.47 328.25L385.62 327.94L385.77 327.64L385.92 327.33L386.07 327.03L386.22 326.73L386.38 326.43L386.53 326.14L386.69 325.85L386.86 325.56L387.02 325.27L387.19 324.99L387.36 324.7L387.53 324.42L387.71 324.15L387.88 323.87L388.06 323.6L388.24 323.32L388.43 323.05L388.62 322.79L388.81 322.52L389 322.26L389.2 321.99L389.39 321.73L389.6 321.47L389.8 321.22L390.01 320.96L390.22 320.71L390.43 320.46L390.65 320.21L390.87 319.96L391.09 319.72L391.32 319.47L391.55 319.23L391.78 319L392.01 318.77L392.25 318.54L392.49 318.31L392.73 318.09L392.98 317.86L393.23 317.64L393.48 317.43L393.73 317.22L393.99 317L394.25 316.8L394.51 316.59L394.78 316.39L395.04 316.19L395.31 315.99L395.58 315.79L395.86 315.6L396.13 315.41L396.41 315.22L396.69 315.03L396.98 314.85L397.26 314.66L397.55 314.48L397.84 314.31L398.13 314.13L398.42 313.95L398.72 313.78L399.01 313.61L399.31 313.44L399.61 313.28L399.92 313.11L400.22 312.95L400.53 312.79L400.83 312.63L401.14 312.47L401.45 312.31L401.77 312.19L402.08 312.07L402.4 311.95L402.73 311.83L403.05 311.71L403.38 311.59L403.71 311.48L404.04 311.37L404.38 311.26L404.72 311.16L405.06 311.05L405.41 310.95L405.76 310.85L406.11 310.75L406.46 310.66L406.81 310.57L407.17 310.48L407.53 310.4L407.89 310.31L408.26 310.23L408.63 310.16L409 310.08L409.37 310.01L409.74 309.95L410.12 309.88L410.5 309.83L410.88 309.77L411.26 309.72L411.65 309.67L412.03 309.62L412.42 309.58L412.81 309.55L413.2 309.51L413.6 309.48L413.99 309.46L414.39 309.44L414.79 309.42L415.19 309.41L415.6 309.4L416 309.4L416.34 309.4L416.68 309.41ZM414.17 319.43L413.28 319.49L412.41 319.58L411.56 319.69L410.74 319.84L409.93 320.01L409.14 320.2L408.38 320.42L407.64 320.68L406.91 320.95L406.22 321.26L405.54 321.6L404.88 321.96L404.25 322.36L403.65 322.78L403.06 323.23L402.5 323.72L401.97 324.23L401.45 324.78L400.96 325.35L400.48 325.94L400.02 326.55L399.57 327.17L399.13 327.82L398.71 328.48L398.3 329.16L397.92 329.87L397.55 330.59L397.19 331.32L396.86 332.08L396.55 332.86L396.25 333.65L395.98 334.47L395.73 335.3L395.5 336.15L395.29 337.02L395.1 337.91L394.94 338.81L394.81 339.74L434.7 339.74L434.7 340.16L434.7 339.74L434.7 339.74L434.7 339.72L434.69 339.28L434.67 338.85L434.65 338.41L434.62 337.98L434.59 337.55L434.55 337.12L434.5 336.69L434.45 336.27L434.39 335.84L434.32 335.42L434.25 335.01L434.17 334.6L434.09 334.19L434 333.79L433.9 333.39L433.8 332.99L433.69 332.6L433.58 332.22L433.45 331.84L433.33 331.47L433.19 331.11L433.05 330.75L432.91 330.39L432.75 330.05L432.59 329.7L432.43 329.36L432.26 329.02L432.08 328.69L431.9 328.36L431.71 328.04L431.51 327.71L431.31 327.39L431.1 327.08L430.88 326.76L430.66 326.44L430.43 326.13L430.2 325.82L429.96 325.51L429.71 325.19L429.46 324.89L429.2 324.6L428.94 324.31L428.67 324.04L428.4 323.79L428.12 323.54L427.83 323.3L427.55 323.07L427.26 322.86L426.96 322.65L426.66 322.45L426.36 322.26L426.06 322.08L425.76 321.91L425.45 321.75L425.14 321.59L424.83 321.44L424.52 321.3L424.21 321.17L423.9 321.04L423.52 320.91L423.15 320.79L422.77 320.67L422.4 320.55L422.02 320.43L421.64 320.31L421.26 320.2L420.88 320.09L420.49 319.99L420.1 319.9L419.71 319.81L419.32 319.72L418.92 319.65L418.52 319.58L418.11 319.52L417.7 319.47L417.28 319.43L416.86 319.4L416.43 319.38L416 319.38L415.07 319.39L414.17 319.43Z" id="gdKEZeTyh"></path><path d="M626.55 296.54L626.89 296.57L627.22 296.6L627.56 296.65L627.89 296.71L628.21 296.78L628.53 296.85L628.85 296.94L629.16 297.03L629.46 297.14L629.76 297.25L630.05 297.37L630.34 297.5L630.62 297.64L630.89 297.78L631.15 297.94L631.41 298.1L631.66 298.27L631.9 298.44L632.13 298.62L632.34 298.81L632.55 299.01L632.75 299.21L632.94 299.42L633.12 299.64L633.28 299.86L633.43 300.08L633.57 300.31L633.7 300.55L633.82 300.79L633.92 301.04L634 301.29L634.07 301.55L634.13 301.81L634.17 302.07L634.2 302.34L634.21 302.61L634.2 302.89L634.18 303.17L634.18 382.96L634.17 383.24L634.15 383.52L634.12 383.79L634.07 384.06L634.01 384.32L633.94 384.58L633.85 384.84L633.76 385.09L633.65 385.34L633.53 385.58L633.39 385.81L633.25 386.05L633.1 386.27L632.93 386.49L632.76 386.71L632.57 386.92L632.38 387.12L632.17 387.32L631.96 387.51L631.74 387.69L631.51 387.86L631.27 388.03L631.02 388.19L630.77 388.35L630.51 388.49L630.24 388.63L629.96 388.76L629.68 388.88L629.39 388.99L629.1 389.1L628.8 389.19L628.49 389.28L628.18 389.35L627.86 389.42L627.54 389.48L627.21 389.53L626.88 389.56L626.55 389.59L626.21 389.6L625.87 389.61L487.9 389.61L487.55 389.6L487.22 389.59L486.88 389.56L486.55 389.53L486.23 389.48L485.9 389.42L485.59 389.35L485.28 389.28L484.97 389.19L484.67 389.1L484.37 388.99L484.08 388.88L483.8 388.76L483.53 388.63L483.26 388.49L483 388.35L482.74 388.19L482.49 388.03L482.26 387.86L482.03 387.69L481.8 387.51L481.59 387.32L481.39 387.12L481.19 386.92L481.01 386.71L480.83 386.49L480.67 386.27L480.52 386.05L480.37 385.81L480.24 385.58L480.12 385.34L480.01 385.09L479.91 384.84L479.83 384.58L479.75 384.32L479.69 384.06L479.65 383.79L479.61 383.52L479.59 383.24L479.58 382.96L479.58 313.56L500.78 296.52L625.87 296.52L626.21 296.52L626.55 296.54ZM519.97 321.45L519.79 321.46L519.62 321.46L519.45 321.46L519.27 321.46L519.1 321.46L518.93 321.46L518.76 321.47L518.59 321.47L518.42 321.48L518.25 321.49L518.08 321.49L517.91 321.5L517.74 321.51L517.58 321.53L517.41 321.54L517.25 321.56L517.08 321.58L516.92 321.6L516.76 321.62L516.6 321.64L516.44 321.67L516.28 321.7L516.12 321.73L515.97 321.77L515.81 321.81L515.66 321.85L515.51 321.89L515.36 321.94L515.21 321.99L515.06 322.04L514.92 322.09L514.77 322.15L514.63 322.22L514.49 322.29L514.36 322.35L514.22 322.42L514.09 322.49L513.95 322.56L513.82 322.63L513.7 322.7L513.57 322.77L513.44 322.84L513.32 322.92L513.2 322.99L513.07 323.06L512.95 323.13L512.84 323.21L512.72 323.28L512.6 323.35L512.49 323.43L512.37 323.51L512.26 323.58L512.15 323.66L512.04 323.74L511.93 323.82L511.82 323.9L511.71 323.99L511.6 324.07L511.49 324.16L511.39 324.24L511.28 324.33L511.17 324.42L511.07 324.51L510.96 324.6L510.86 324.7L510.75 324.79L510.65 324.89L510.55 324.99L510.44 325.09L510.34 325.19L510.27 325.27L510.2 325.34L510.12 325.41L510.05 325.49L509.97 325.57L509.89 325.65L509.81 325.73L509.74 325.81L509.66 325.9L509.58 325.98L509.49 326.07L509.41 326.16L509.33 326.26L509.25 326.35L509.17 326.45L509.09 326.55L509.01 326.65L508.94 326.75L508.86 326.86L508.78 326.96L508.71 327.07L508.63 327.18L508.56 327.3L508.49 327.41L508.42 327.53L508.36 327.65L508.29 327.77L508.23 327.89L508.17 328.01L508.12 328.14L508.06 328.27L508.01 328.4L507.96 328.53L507.92 328.66L507.88 328.8L507.84 328.94L507.81 329.07L507.77 329.21L507.74 329.34L507.71 329.47L507.67 329.61L507.64 329.74L507.6 329.86L507.57 329.99L507.54 330.12L507.51 330.24L507.48 330.37L507.44 330.49L507.41 330.61L507.38 330.73L507.35 330.86L507.33 330.98L507.3 331.1L507.27 331.22L507.25 331.34L507.22 331.46L507.2 331.58L507.18 331.71L507.16 331.83L507.14 331.95L507.12 332.08L507.1 332.2L507.08 332.32L507.07 332.45L507.06 332.58L507.05 332.71L507.04 332.84L507.03 332.97L507.02 333.1L507.02 333.23L507.01 333.37L507.01 333.51L507.01 333.68L507.02 333.85L507.02 334.02L507.03 334.18L507.04 334.35L507.05 334.51L507.06 334.67L507.07 334.83L507.08 334.99L507.1 335.14L507.12 335.29L507.14 335.45L507.16 335.59L507.18 335.74L507.2 335.89L507.22 336.03L507.25 336.17L507.27 336.31L507.3 336.45L507.33 336.58L507.35 336.72L507.38 336.85L507.41 336.98L507.44 337.11L507.48 337.23L507.51 337.36L507.54 337.48L507.57 337.6L507.6 337.72L507.64 337.84L507.67 337.95L507.71 338.06L507.74 338.17L507.77 338.28L507.81 338.39L507.84 338.49L507.88 338.6L507.92 338.7L507.96 338.8L508 338.91L508.04 339.01L508.08 339.11L508.13 339.22L508.18 339.32L508.23 339.42L508.28 339.52L508.33 339.62L508.38 339.72L508.44 339.82L508.49 339.92L508.55 340.02L508.61 340.12L508.67 340.22L508.73 340.31L508.79 340.41L508.85 340.5L508.91 340.59L508.98 340.68L509.04 340.77L509.11 340.86L509.17 340.95L509.24 341.04L509.31 341.12L509.37 341.21L509.44 341.29L509.51 341.37L509.58 341.45L509.65 341.53L509.71 341.6L509.78 341.68L509.85 341.75L509.92 341.82L510.03 341.89L510.13 341.96L510.23 342.03L510.32 342.09L510.42 342.16L510.51 342.23L510.61 342.3L510.7 342.37L510.79 342.44L510.88 342.5L510.97 342.57L511.06 342.63L511.15 342.7L511.24 342.76L511.32 342.83L511.41 342.89L511.5 342.95L511.58 343.01L511.67 343.07L511.76 343.13L511.84 343.19L511.93 343.25L512.02 343.3L512.11 343.36L512.2 343.41L512.29 343.46L512.38 343.51L512.47 343.56L512.56 343.61L512.65 343.66L512.75 343.7L512.85 343.74L512.94 343.78L513.04 343.82L513.14 343.86L513.25 343.9L520.73 346.39L520.83 346.42L520.93 346.46L521.04 346.49L521.14 346.53L521.25 346.56L521.35 346.6L521.45 346.63L521.55 346.67L521.66 346.7L521.76 346.74L521.86 346.77L521.96 346.81L522.06 346.84L522.16 346.87L522.26 346.91L522.35 346.94L522.45 346.98L522.55 347.01L522.64 347.05L522.73 347.08L522.83 347.12L522.92 347.15L523.01 347.19L523.1 347.22L523.19 347.26L523.27 347.29L523.36 347.32L523.44 347.36L523.52 347.39L523.6 347.43L523.68 347.46L523.76 347.5L523.84 347.53L523.91 347.57L523.98 347.6L524.05 347.64L524.12 347.67L524.19 347.71L524.26 347.74L524.33 347.78L524.4 347.81L524.47 347.85L524.53 347.88L524.6 347.92L524.67 347.95L524.74 347.99L524.8 348.03L524.87 348.07L524.93 348.11L525 348.15L525.06 348.19L525.12 348.23L525.19 348.27L525.25 348.31L525.31 348.36L525.37 348.4L525.42 348.45L525.48 348.49L525.54 348.54L525.59 348.59L525.64 348.64L525.7 348.69L525.75 348.75L525.8 348.8L525.84 348.86L525.89 348.92L525.93 348.98L525.98 349.04L526.02 349.1L526.06 349.16L526.09 349.23L526.13 349.3L526.16 349.37L526.2 349.44L526.23 349.51L526.27 349.58L526.3 349.65L526.34 349.72L526.37 349.79L526.4 349.86L526.44 349.93L526.47 350L526.5 350.07L526.53 350.15L526.56 350.22L526.59 350.29L526.62 350.37L526.65 350.44L526.67 350.52L526.7 350.6L526.73 350.68L526.75 350.76L526.77 350.84L526.8 350.92L526.82 351L526.84 351.08L526.86 351.17L526.87 351.26L526.89 351.34L526.9 351.43L526.92 351.52L526.93 351.62L526.94 351.71L526.95 351.81L526.95 351.9L526.96 352L526.96 352.1L526.96 352.21L526.96 352.38L526.96 352.55L526.95 352.71L526.95 352.87L526.94 353.03L526.92 353.18L526.91 353.33L526.89 353.48L526.88 353.62L526.86 353.76L526.83 353.9L526.81 354.04L526.78 354.17L526.75 354.3L526.71 354.43L526.68 354.56L526.64 354.68L526.6 354.81L526.55 354.93L526.5 355.04L526.45 355.16L526.4 355.28L526.34 355.39L526.28 355.5L526.22 355.61L526.15 355.72L526.08 355.83L526.01 355.94L525.93 356.05L525.85 356.15L525.77 356.26L525.68 356.36L525.59 356.47L525.5 356.57L525.4 356.68L525.3 356.78L525.19 356.88L525.08 356.98L524.97 357.07L524.85 357.16L524.73 357.25L524.61 357.34L524.48 357.42L524.35 357.49L524.22 357.56L524.09 357.63L523.95 357.7L523.81 357.76L523.66 357.82L523.52 357.88L523.37 357.93L523.22 357.99L523.06 358.03L522.91 358.08L522.75 358.12L522.59 358.16L522.43 358.2L522.27 358.23L522.11 358.26L521.94 358.29L521.78 358.31L521.61 358.34L521.44 358.36L521.27 358.38L521.1 358.39L520.93 358.41L520.76 358.42L520.59 358.43L520.42 358.43L520.24 358.44L520.07 358.44L519.9 358.44L519.79 358.44L519.69 358.44L519.58 358.44L519.48 358.44L519.38 358.44L519.27 358.44L519.17 358.44L519.06 358.44L518.96 358.44L518.86 358.43L518.75 358.43L518.65 358.43L518.55 358.42L518.44 358.42L518.34 358.41L518.23 358.41L518.13 358.4L518.03 358.39L517.92 358.38L517.82 358.37L517.71 358.36L517.61 358.35L517.51 358.33L517.4 358.32L517.3 358.3L517.19 358.29L517.09 358.27L516.99 358.25L516.88 358.22L516.78 358.2L516.68 358.18L516.57 358.15L516.47 358.12L516.36 358.09L516.26 358.06L516.16 358.03L516.05 357.99L515.95 357.96L515.85 357.92L515.76 357.89L515.66 357.85L515.57 357.82L515.47 357.78L515.38 357.75L515.29 357.71L515.2 357.68L515.12 357.65L515.03 357.61L514.95 357.58L514.87 357.54L514.78 357.51L514.7 357.47L514.62 357.44L514.55 357.4L514.47 357.37L514.39 357.33L514.32 357.3L514.24 357.26L514.17 357.23L514.09 357.19L514.02 357.16L513.95 357.13L513.88 357.09L513.81 357.06L513.73 357.02L513.66 356.99L513.59 356.95L513.52 356.92L513.45 356.88L513.39 356.85L513.32 356.81L513.25 356.78L513.18 356.74L513.11 356.71L513.05 356.68L512.98 356.64L512.92 356.61L512.86 356.57L512.8 356.54L512.75 356.5L512.69 356.47L512.63 356.43L512.58 356.4L512.52 356.36L512.47 356.33L512.42 356.29L512.36 356.26L512.31 356.23L512.26 356.19L512.16 356.12L512.1 356.09L512.05 356.05L512 356.02L511.95 355.98L511.89 355.95L511.84 355.91L511.78 355.88L511.73 355.84L511.67 355.81L511.61 355.77L511.55 355.74L511.49 355.71L511.43 355.67L511.37 355.64L511.3 355.6L511.24 355.57L511.17 355.53L511.1 355.5L511.03 355.47L510.97 355.44L510.91 355.41L510.85 355.38L510.79 355.36L510.73 355.33L510.67 355.31L510.62 355.29L510.56 355.27L510.51 355.26L510.46 355.24L510.41 355.23L510.36 355.21L510.32 355.2L510.27 355.19L510.23 355.18L510.18 355.17L510.14 355.16L510.1 355.15L510.06 355.15L510.02 355.14L509.98 355.14L509.94 355.13L509.9 355.13L509.86 355.13L509.82 355.12L509.79 355.12L509.75 355.12L509.72 355.12L509.68 355.12L509.65 355.12L509.61 355.12L509.58 355.12L509.54 355.12L509.51 355.12L509.5 355.12L509.49 355.12L509.48 355.12L509.47 355.12L509.46 355.12L509.45 355.12L509.44 355.12L509.42 355.13L509.4 355.13L509.38 355.13L509.36 355.14L509.34 355.14L509.32 355.15L509.3 355.15L509.27 355.16L509.25 355.17L509.22 355.18L509.19 355.19L509.16 355.2L509.14 355.21L509.11 355.23L509.08 355.24L509.04 355.26L509.01 355.27L508.98 355.29L508.95 355.31L508.91 355.33L508.88 355.36L508.85 355.38L508.81 355.41L508.78 355.44L508.74 355.47L508.71 355.5L508.64 355.57L508.61 355.6L508.57 355.63L508.54 355.66L508.5 355.68L508.47 355.71L508.44 355.73L508.4 355.76L508.37 355.78L508.34 355.8L508.31 355.82L508.28 355.84L508.24 355.86L508.21 355.88L508.19 355.9L508.16 355.91L508.13 355.93L508.1 355.95L508.08 355.97L508.05 355.98L508.03 356L508.01 356.02L507.99 356.04L507.97 356.06L507.95 356.08L507.93 356.1L507.92 356.12L507.9 356.14L507.89 356.16L507.88 356.19L507.87 356.21L507.86 356.24L507.85 356.27L507.85 356.3L507.85 356.33L507.84 356.36L505.35 360.1L505.42 360.17L505.49 360.24L505.57 360.31L505.64 360.38L505.72 360.45L505.8 360.52L505.88 360.59L505.96 360.65L506.04 360.72L506.12 360.79L506.21 360.85L506.29 360.92L506.37 360.98L506.46 361.05L506.55 361.11L506.63 361.18L506.72 361.24L506.81 361.3L506.89 361.36L506.98 361.42L507.06 361.48L507.15 361.53L507.24 361.59L507.32 361.64L507.41 361.7L507.49 361.75L507.57 361.8L507.65 361.85L507.73 361.9L507.81 361.94L507.89 361.99L507.97 362.03L508.04 362.07L508.12 362.11L508.19 362.15L508.26 362.18L508.33 362.22L508.4 362.25L508.48 362.29L508.55 362.33L508.63 362.38L508.71 362.42L508.79 362.47L508.87 362.51L508.95 362.56L509.04 362.61L509.13 362.66L509.21 362.71L509.3 362.76L509.39 362.81L509.49 362.86L509.58 362.91L509.67 362.96L509.77 363.01L509.86 363.06L509.96 363.12L510.06 363.17L510.15 363.22L510.25 363.27L510.35 363.32L510.45 363.37L510.55 363.42L510.66 363.47L510.76 363.51L510.86 363.56L510.96 363.61L511.07 363.65L511.17 363.69L511.27 363.73L511.38 363.77L511.48 363.81L511.58 363.84L511.69 363.88L511.79 363.91L511.89 363.95L511.99 363.98L512.08 364.02L512.18 364.05L512.27 364.09L512.37 364.12L512.46 364.16L512.55 364.19L512.65 364.23L512.83 364.29L512.92 364.33L513.02 364.36L513.11 364.4L513.2 364.43L513.3 364.47L513.39 364.5L513.49 364.54L513.59 364.57L513.69 364.61L513.79 364.64L513.89 364.68L514 364.71L514.11 364.74L514.21 364.78L514.33 364.81L514.44 364.85L514.56 364.88L514.68 364.92L514.8 364.95L514.93 364.99L515.06 365.02L515.19 365.06L515.32 365.09L515.46 365.12L515.6 365.16L515.73 365.19L515.86 365.21L515.99 365.24L516.12 365.27L516.25 365.29L516.38 365.31L516.5 365.33L516.62 365.35L516.74 365.37L516.86 365.38L516.98 365.4L517.1 365.41L517.22 365.42L517.33 365.44L517.45 365.45L517.56 365.45L517.67 365.46L517.78 365.47L517.89 365.48L518 365.48L518.11 365.49L518.22 365.49L518.33 365.49L518.43 365.5L518.54 365.5L518.64 365.5L518.75 365.5L518.86 365.5L518.96 365.51L519.06 365.51L519.17 365.51L519.27 365.51L519.38 365.51L519.48 365.51L519.69 365.51L519.89 365.5L520.1 365.5L520.3 365.49L520.5 365.48L520.69 365.47L520.89 365.46L521.08 365.44L521.27 365.43L521.46 365.41L521.65 365.39L521.84 365.37L522.02 365.34L522.2 365.32L522.38 365.29L522.56 365.26L522.73 365.23L522.91 365.19L523.08 365.16L523.25 365.12L523.42 365.08L523.59 365.04L523.75 365L523.91 364.95L524.07 364.91L524.23 364.86L524.39 364.81L524.54 364.75L524.7 364.7L524.85 364.64L525 364.58L525.14 364.52L525.29 364.46L525.43 364.39L525.57 364.33L525.71 364.26L525.85 364.19L525.99 364.12L526.13 364.05L526.27 363.98L526.41 363.91L526.54 363.84L526.68 363.77L526.82 363.7L526.95 363.63L527.09 363.56L527.23 363.49L527.36 363.41L527.5 363.34L527.63 363.27L527.76 363.19L527.89 363.12L528.03 363.04L528.16 362.96L528.29 362.88L528.41 362.8L528.54 362.72L528.67 362.64L528.79 362.56L528.92 362.47L529.04 362.39L529.16 362.3L529.28 362.21L529.4 362.12L529.51 362.03L529.63 361.94L529.74 361.85L529.86 361.75L529.97 361.65L530.07 361.55L530.18 361.45L530.29 361.35L530.39 361.25L530.49 361.14L530.59 361.03L530.69 360.92L530.78 360.81L530.88 360.69L530.97 360.58L531.06 360.46L531.15 360.34L531.24 360.22L531.32 360.1L531.41 359.98L531.49 359.86L531.58 359.73L531.66 359.61L531.74 359.48L531.82 359.35L531.9 359.22L531.97 359.09L532.05 358.96L532.13 358.83L532.2 358.69L532.27 358.56L532.35 358.43L532.42 358.29L532.49 358.16L532.56 358.02L532.64 357.88L532.71 357.75L532.78 357.61L532.85 357.47L532.92 357.33L532.99 357.19L533.06 357.06L533.13 356.92L533.19 356.78L533.23 356.64L533.26 356.5L533.3 356.36L533.33 356.21L533.37 356.07L533.4 355.92L533.43 355.77L533.46 355.63L533.49 355.48L533.52 355.33L533.55 355.19L533.58 355.04L533.61 354.89L533.63 354.75L533.65 354.61L533.68 354.46L533.7 354.32L533.71 354.18L533.73 354.04L533.74 353.91L533.76 353.78L533.77 353.65L533.77 353.52L533.78 353.39L533.78 353.27L533.78 353.15L533.78 353.04L533.77 352.93L533.76 352.82L533.75 352.72L533.74 352.62L533.72 352.53L533.7 352.44L533.67 352.36L533.64 352.28L533.61 352.21L533.61 352.07L533.61 351.93L533.6 351.79L533.6 351.65L533.59 351.52L533.58 351.38L533.57 351.24L533.55 351.1L533.54 350.97L533.52 350.83L533.51 350.7L533.49 350.56L533.47 350.43L533.45 350.29L533.42 350.16L533.4 350.03L533.38 349.9L533.35 349.77L533.32 349.64L533.3 349.51L533.27 349.38L533.24 349.26L533.21 349.13L533.18 349.01L533.15 348.88L533.12 348.76L533.08 348.64L533.05 348.52L533.02 348.41L532.99 348.29L532.95 348.18L532.92 348.07L532.88 347.96L532.85 347.85L532.81 347.74L532.78 347.64L532.74 347.53L532.71 347.43L532.67 347.32L532.64 347.22L532.6 347.12L532.57 347.01L532.53 346.91L532.49 346.81L532.45 346.71L532.42 346.61L532.37 346.51L532.33 346.41L532.29 346.31L532.25 346.21L532.2 346.11L532.15 346.01L532.1 345.91L532.05 345.82L532 345.72L531.94 345.63L531.89 345.54L531.83 345.45L531.77 345.36L531.7 345.27L531.64 345.18L531.57 345.09L531.49 345.01L531.42 344.92L531.34 344.84L531.26 344.76L531.17 344.68L531.09 344.6L531 344.53L530.9 344.45L530.8 344.38L530.7 344.31L530.6 344.24L530.5 344.17L530.4 344.1L530.3 344.04L530.2 343.97L530.11 343.9L530.02 343.83L529.92 343.76L529.83 343.69L529.74 343.63L529.65 343.56L529.56 343.5L529.47 343.43L529.39 343.37L529.3 343.3L529.21 343.24L529.13 343.18L529.04 343.12L528.95 343.06L528.87 343L528.78 342.94L528.69 342.88L528.6 342.83L528.52 342.77L528.43 342.72L528.34 342.67L528.25 342.62L528.16 342.57L528.06 342.52L527.97 342.47L527.87 342.43L527.78 342.39L527.68 342.35L527.58 342.31L527.48 342.27L527.38 342.23L527.27 342.17L527.17 342.1L527.06 342.03L526.96 341.97L526.86 341.91L526.75 341.85L526.65 341.79L526.55 341.74L526.44 341.68L526.34 341.63L526.23 341.58L526.13 341.53L526.03 341.48L525.92 341.43L525.82 341.38L525.71 341.34L525.61 341.29L525.51 341.25L525.4 341.2L525.3 341.16L525.19 341.12L525.09 341.08L524.99 341.04L524.88 341L524.78 340.96L524.68 340.93L524.57 340.89L524.47 340.85L524.36 340.82L524.26 340.78L524.16 340.75L524.05 340.71L523.95 340.68L523.84 340.64L523.74 340.61L523.64 340.57L519.9 339.32L519.79 339.29L519.69 339.26L519.58 339.22L519.48 339.19L519.38 339.15L519.27 339.12L519.17 339.08L519.07 339.05L518.97 339.01L518.87 338.98L518.77 338.94L518.66 338.91L518.57 338.87L518.47 338.84L518.37 338.81L518.27 338.77L518.17 338.74L518.08 338.7L517.98 338.67L517.89 338.63L517.8 338.6L517.71 338.56L517.61 338.53L517.53 338.49L517.44 338.46L517.35 338.42L517.27 338.39L517.18 338.35L517.1 338.32L517.02 338.29L516.94 338.25L516.86 338.22L516.79 338.18L516.71 338.15L516.64 338.11L516.57 338.08L516.5 338.04L516.43 338.01L516.36 337.97L516.29 337.94L516.23 337.9L516.16 337.87L516.09 337.83L516.02 337.8L515.95 337.76L515.89 337.72L515.82 337.69L515.76 337.65L515.69 337.61L515.63 337.57L515.56 337.53L515.5 337.49L515.44 337.45L515.38 337.4L515.32 337.36L515.26 337.31L515.2 337.27L515.14 337.22L515.09 337.17L515.03 337.12L514.98 337.07L514.93 337.02L514.88 336.97L514.83 336.91L514.78 336.86L514.73 336.8L514.69 336.74L514.65 336.68L514.61 336.61L514.57 336.55L514.53 336.48L514.49 336.42L514.46 336.35L514.42 336.28L514.39 336.21L514.36 336.14L514.32 336.07L514.29 336L514.25 335.93L514.22 335.86L514.19 335.79L514.16 335.72L514.12 335.65L514.09 335.58L514.06 335.52L514.03 335.45L514 335.38L513.98 335.31L513.95 335.24L513.92 335.17L513.9 335.1L513.87 335.03L513.85 334.96L513.83 334.89L513.81 334.82L513.79 334.75L513.77 334.68L513.75 334.61L513.73 334.55L513.72 334.48L513.71 334.41L513.7 334.34L513.69 334.27L513.68 334.2L513.67 334.13L513.67 334.06L513.66 333.99L513.66 333.92L513.66 333.85L513.66 333.79L513.66 333.72L513.66 333.66L513.66 333.6L513.66 333.54L513.67 333.48L513.67 333.42L513.67 333.36L513.67 333.31L513.67 333.25L513.68 333.2L513.68 333.15L513.69 333.09L513.69 333.04L513.7 332.99L513.71 332.94L513.71 332.88L513.72 332.83L513.73 332.78L513.74 332.73L513.76 332.67L513.77 332.62L513.79 332.57L513.8 332.51L513.82 332.46L513.84 332.4L513.86 332.35L513.88 332.29L513.9 332.23L513.93 332.17L513.95 332.11L513.98 332.04L514.01 331.98L514.04 331.91L514.08 331.84L514.11 331.78L514.15 331.71L514.18 331.64L514.22 331.58L514.25 331.52L514.29 331.46L514.32 331.4L514.35 331.35L514.39 331.29L514.42 331.24L514.46 331.19L514.49 331.14L514.53 331.09L514.56 331.04L514.6 330.99L514.63 330.95L514.67 330.9L514.7 330.86L514.74 330.81L514.77 330.77L514.81 330.73L514.84 330.69L514.87 330.65L514.91 330.61L514.94 330.57L514.98 330.54L515.01 330.5L515.05 330.46L515.08 330.43L515.12 330.39L515.15 330.36L515.19 330.32L515.22 330.29L515.26 330.25L515.29 330.22L515.32 330.18L515.36 330.15L515.4 330.11L515.44 330.08L515.48 330.04L515.52 330.01L515.57 329.97L515.61 329.94L515.66 329.9L515.71 329.87L515.76 329.84L515.81 329.8L515.86 329.77L515.92 329.73L515.97 329.7L516.03 329.66L516.09 329.63L516.15 329.59L516.21 329.56L516.27 329.52L516.33 329.49L516.39 329.45L516.46 329.42L516.52 329.39L516.59 329.35L516.65 329.32L516.72 329.28L516.79 329.25L516.85 329.21L516.92 329.18L516.99 329.14L517.06 329.11L517.13 329.07L517.2 329.04L517.26 329L517.33 328.97L517.4 328.94L517.47 328.9L517.54 328.87L517.61 328.84L517.68 328.81L517.75 328.78L517.82 328.76L517.89 328.74L517.96 328.72L518.03 328.69L518.1 328.68L518.18 328.66L518.25 328.64L518.32 328.63L518.4 328.61L518.47 328.6L518.55 328.59L518.62 328.58L518.7 328.57L518.78 328.56L518.86 328.56L518.94 328.55L519.02 328.54L519.1 328.54L519.19 328.53L519.27 328.53L519.36 328.53L519.45 328.53L519.54 328.52L519.63 328.52L519.72 328.52L519.82 328.52L519.91 328.52L520.01 328.52L520.11 328.52L520.21 328.52L520.31 328.52L520.41 328.52L520.52 328.52L520.62 328.53L520.71 328.53L520.81 328.54L520.9 328.55L521 328.56L521.09 328.57L521.18 328.58L521.27 328.6L521.36 328.61L521.45 328.63L521.54 328.64L521.63 328.66L521.71 328.68L521.8 328.69L521.89 328.71L522.06 328.74L522.15 328.76L522.23 328.78L522.32 328.8L522.41 328.81L522.5 328.83L522.59 328.84L522.68 328.86L522.77 328.87L522.86 328.88L522.95 328.89L523.04 328.9L523.14 328.91L523.24 328.92L523.33 328.93L523.43 328.93L523.53 328.93L523.64 328.94L523.74 328.94L523.84 328.94L523.94 328.95L524.04 328.96L524.13 328.98L524.23 329L524.32 329.02L524.41 329.04L524.49 329.06L524.58 329.09L524.66 329.12L524.74 329.15L524.82 329.18L524.9 329.21L524.98 329.25L525.05 329.28L525.12 329.32L525.19 329.35L525.26 329.39L525.33 329.42L525.39 329.45L525.46 329.49L525.52 329.52L525.58 329.55L525.63 329.58L525.69 329.61L525.74 329.64L525.79 329.66L525.84 329.68L525.89 329.7L525.93 329.72L525.98 329.74L526.02 329.75L526.06 329.76L526.09 329.76L526.13 329.77L526.17 329.77L526.2 329.77L526.24 329.77L526.28 329.78L526.32 329.79L526.37 329.8L526.41 329.81L526.46 329.82L526.51 329.84L526.55 329.85L526.6 329.87L526.65 329.89L526.7 329.91L526.75 329.93L526.81 329.95L526.86 329.98L526.91 330L526.96 330.03L527.01 330.05L527.06 330.08L527.12 330.11L527.17 330.14L527.22 330.17L527.27 330.2L527.32 330.23L527.37 330.26L527.42 330.29L527.46 330.32L527.51 330.36L527.55 330.39L527.6 330.43L527.64 330.46L527.68 330.49L527.72 330.53L527.76 330.56L527.79 330.6L527.83 330.63L527.86 330.66L527.9 330.69L527.93 330.72L527.97 330.75L528 330.77L528.03 330.8L528.07 330.82L528.1 330.84L528.14 330.86L528.17 330.87L528.21 330.89L528.24 330.9L528.28 330.92L528.31 330.93L528.35 330.94L528.38 330.95L528.42 330.96L528.45 330.97L528.48 330.98L528.52 330.98L528.55 330.99L528.59 330.99L528.62 331L528.66 331L528.69 331L528.73 331.01L528.76 331.01L528.8 331.01L528.83 331.01L528.87 331.01L528.9 331.01L528.94 331.01L528.97 331.01L529 331.01L529.04 331.01L529.07 331.01L529.1 331.01L529.13 331L529.16 331L529.19 330.99L529.22 330.98L529.24 330.97L529.26 330.96L529.29 330.95L529.31 330.93L529.33 330.92L529.35 330.91L529.37 330.89L529.38 330.87L529.4 330.86L529.42 330.84L529.44 330.82L529.47 330.79L529.49 330.77L529.51 330.75L529.52 330.74L529.54 330.72L529.56 330.71L529.58 330.69L529.6 330.68L529.62 330.66L529.65 330.65L529.67 330.64L529.69 330.63L529.72 330.62L529.75 330.61L529.77 330.61L529.8 330.6L529.84 330.6L529.87 330.6L529.9 330.6L529.94 330.59L529.97 330.59L529.99 330.58L530.02 330.57L530.05 330.56L530.07 330.55L530.09 330.54L530.12 330.53L530.14 330.51L530.16 330.49L530.18 330.47L530.2 330.45L530.22 330.43L530.23 330.41L530.25 330.39L530.27 330.36L530.29 330.34L530.3 330.31L530.32 330.28L530.34 330.26L530.36 330.23L530.37 330.2L530.39 330.17L530.41 330.14L530.43 330.1L530.45 330.07L530.48 330.04L530.5 330.01L530.52 329.97L530.55 329.94L530.58 329.9L530.61 329.87L530.64 329.84L530.67 329.8L530.7 329.77L532.78 326.03L532.64 325.92L532.5 325.82L532.36 325.71L532.22 325.61L532.09 325.51L531.95 325.4L531.81 325.3L531.67 325.2L531.53 325.1L531.39 325L531.24 324.89L531.1 324.79L530.96 324.69L530.82 324.6L530.67 324.5L530.53 324.4L530.38 324.3L530.23 324.21L530.09 324.11L529.94 324.02L529.79 323.93L529.64 323.84L529.48 323.74L529.33 323.66L529.18 323.57L529.02 323.48L528.86 323.4L528.7 323.31L528.54 323.23L528.38 323.15L528.22 323.07L528.05 322.99L527.89 322.92L527.72 322.84L527.55 322.77L527.38 322.7L527.2 322.63L527.03 322.57L526.85 322.5L526.67 322.44L526.49 322.38L526.3 322.32L526.12 322.26L525.93 322.21L525.75 322.16L525.56 322.1L525.37 322.06L525.18 322.01L524.98 321.96L524.79 321.92L524.59 321.88L524.4 321.84L524.2 321.8L524 321.77L523.8 321.73L523.6 321.7L523.4 321.67L523.2 321.64L522.99 321.62L522.79 321.59L522.59 321.57L522.38 321.55L522.18 321.53L521.97 321.52L521.76 321.5L521.56 321.49L521.35 321.48L521.14 321.47L520.93 321.46L520.73 321.46L520.52 321.46L520.31 321.45L520.14 321.45L519.97 321.45ZM566.44 364.68L573.51 364.68L573.51 333.51L586.39 357.61L586.45 357.7L586.51 357.79L586.58 357.88L586.64 357.96L586.7 358.04L586.77 358.12L586.83 358.19L586.89 358.26L586.96 358.33L587.02 358.4L587.08 358.46L587.15 358.52L587.21 358.58L587.28 358.63L587.35 358.68L587.41 358.73L587.48 358.78L587.55 358.83L587.62 358.87L587.69 358.91L587.76 358.95L587.83 358.98L587.9 359.02L587.98 359.05L588.05 359.08L588.12 359.1L588.2 359.13L588.28 359.15L588.36 359.17L588.44 359.19L588.52 359.2L588.6 359.22L588.68 359.23L588.76 359.24L588.85 359.25L588.94 359.26L589.03 359.27L589.11 359.27L589.21 359.27L589.3 359.27L590.55 359.27L590.64 359.27L590.73 359.27L590.83 359.27L590.92 359.26L591.01 359.25L591.1 359.24L591.2 359.23L591.29 359.22L591.38 359.2L591.47 359.19L591.56 359.17L591.65 359.15L591.73 359.13L591.82 359.1L591.9 359.08L591.99 359.05L592.07 359.02L592.15 358.98L592.23 358.95L592.31 358.91L592.39 358.87L592.46 358.83L592.54 358.78L592.61 358.73L592.68 358.68L592.75 358.63L592.81 358.58L592.88 358.52L592.94 358.46L593 358.4L593.06 358.33L593.11 358.26L593.16 358.19L593.21 358.12L593.26 358.04L593.31 357.96L593.35 357.88L593.39 357.79L593.42 357.7L593.45 357.61L606.34 333.51L606.34 364.68L611.74 364.68L611.74 322.7L604.27 322.7L604.25 322.7L604.24 322.7L604.23 322.7L604.23 322.7L604.22 322.7L604.21 322.71L604.19 322.71L604.18 322.71L604.17 322.71L604.16 322.72L604.14 322.72L604.13 322.72L604.11 322.73L604.1 322.73L604.08 322.74L604.07 322.75L604.05 322.75L604.04 322.76L604.02 322.77L604.01 322.78L603.99 322.79L603.98 322.8L603.96 322.82L603.95 322.83L603.93 322.84L603.92 322.86L603.91 322.88L603.9 322.89L603.89 322.91L603.88 322.93L603.87 322.96L603.86 322.98L603.86 323L603.85 323.03L603.85 323.06L603.84 323.09L603.84 323.15L603.84 323.18L603.84 323.2L603.83 323.23L603.83 323.25L603.82 323.28L603.81 323.3L603.8 323.32L603.79 323.34L603.78 323.36L603.77 323.38L603.75 323.4L603.74 323.42L603.73 323.44L603.71 323.45L603.7 323.47L603.68 323.49L603.67 323.5L603.65 323.52L603.62 323.55L603.61 323.56L603.59 323.58L603.57 323.6L603.56 323.61L603.55 323.63L603.53 323.65L603.52 323.66L603.51 323.68L603.49 323.7L603.48 323.72L603.47 323.74L603.46 323.76L603.45 323.79L603.45 323.81L603.44 323.84L603.44 323.86L603.43 323.89L603.43 323.92L603.43 323.95L590.96 347.22L590.93 347.28L590.9 347.34L590.87 347.4L590.85 347.46L590.82 347.51L590.8 347.57L590.78 347.62L590.75 347.68L590.73 347.73L590.71 347.78L590.7 347.83L590.68 347.88L590.66 347.93L590.64 347.98L590.62 348.02L590.61 348.07L590.59 348.12L590.58 348.17L590.56 348.21L590.53 348.31L590.51 348.35L590.5 348.4L590.48 348.45L590.47 348.5L590.45 348.54L590.43 348.59L590.41 348.64L590.4 348.69L590.38 348.74L590.36 348.79L590.34 348.84L590.31 348.9L590.29 348.95L590.27 349L590.24 349.06L590.22 349.12L590.19 349.18L590.16 349.24L590.1 349.36L590.07 349.42L590.04 349.48L590.02 349.54L589.99 349.59L589.97 349.65L589.95 349.7L589.92 349.75L589.9 349.81L589.88 349.86L589.86 349.91L589.85 349.96L589.83 350.01L589.81 350.05L589.79 350.1L589.78 350.15L589.76 350.2L589.75 350.24L589.73 350.29L589.7 350.38L589.68 350.43L589.67 350.48L589.65 350.53L589.63 350.57L589.62 350.62L589.6 350.67L589.58 350.72L589.56 350.77L589.55 350.82L589.53 350.87L589.5 350.92L589.48 350.97L589.46 351.03L589.44 351.08L589.41 351.14L589.39 351.2L589.36 351.25L589.33 351.32L589.3 351.38L589.27 351.32L589.24 351.25L589.21 351.2L589.19 351.14L589.16 351.08L589.14 351.03L589.11 350.97L589.09 350.92L589.07 350.87L589.05 350.82L589.03 350.77L589.01 350.72L589 350.67L588.98 350.62L588.96 350.57L588.95 350.53L588.93 350.48L588.91 350.43L588.9 350.38L588.87 350.29L588.85 350.24L588.84 350.2L588.82 350.15L588.8 350.1L588.79 350.05L588.77 350.01L588.75 349.96L588.73 349.91L588.71 349.86L588.69 349.81L588.67 349.75L588.65 349.7L588.63 349.65L588.61 349.59L588.58 349.54L588.55 349.48L588.53 349.42L588.5 349.36L588.47 349.3L588.47 349.24L588.46 349.18L588.46 349.12L588.46 349.06L588.45 349L588.44 348.95L588.43 348.9L588.42 348.84L588.41 348.79L588.4 348.74L588.38 348.69L588.37 348.64L588.35 348.59L588.33 348.54L588.31 348.5L588.29 348.45L588.27 348.4L588.25 348.35L588.23 348.31L588.21 348.26L588.18 348.21L588.16 348.17L588.13 348.12L588.11 348.07L588.08 348.02L588.05 347.98L588.03 347.93L588 347.88L587.97 347.83L587.94 347.78L587.91 347.73L587.88 347.68L587.85 347.62L587.82 347.57L587.79 347.51L587.76 347.46L587.73 347.4L587.7 347.34L587.67 347.28L587.64 347.22L574.75 323.53L574.75 323.5L574.75 323.47L574.75 323.45L574.74 323.42L574.74 323.39L574.73 323.37L574.72 323.35L574.71 323.33L574.7 323.31L574.69 323.29L574.68 323.27L574.66 323.25L574.65 323.23L574.64 323.21L574.62 323.2L574.61 323.18L574.59 323.16L574.58 323.15L574.56 323.13L574.53 323.1L574.51 323.09L574.5 323.07L574.48 323.05L574.47 323.04L574.45 323.02L574.44 323L574.43 322.99L574.41 322.97L574.4 322.95L574.39 322.93L574.38 322.91L574.37 322.89L574.36 322.86L574.36 322.84L574.35 322.81L574.34 322.79L574.34 322.76L574.34 322.73L574.34 322.67L574.33 322.64L574.33 322.61L574.33 322.59L574.32 322.56L574.31 322.54L574.3 322.52L574.29 322.5L574.28 322.48L574.27 322.46L574.26 322.44L574.25 322.43L574.23 322.41L574.22 322.4L574.21 322.39L574.19 322.38L574.18 322.36L574.16 322.35L574.15 322.35L574.13 322.34L574.11 322.33L574.1 322.32L574.08 322.32L574.07 322.31L574.05 322.31L574.04 322.3L574.03 322.3L574.01 322.3L574 322.29L573.99 322.29L573.98 322.29L573.97 322.29L573.96 322.29L573.95 322.29L573.94 322.29L573.93 322.29L573.92 322.29L566.44 322.29L566.44 364.68ZM545.66 364.68L553.56 364.68L553.56 322.29L545.66 322.29L545.66 364.68Z" id="a44IjXs8fS"></path><path d="M269.95 310.23L283.19 310.23L283.19 385.04L269.95 385.04L269.95 310.23Z" id="b7zZrhNM9O"></path></defs><g><g><g><use xlink:href="#e1Z7hD64jw" opacity="1" fill="#000000" fill-opacity="1"></use><g><use xlink:href="#e1Z7hD64jw" opacity="1" fill-opacity="0" stroke="#000000" stroke-width="1" stroke-opacity="0"></use></g></g><g><use xlink:href="#a2xDCMiR61" opacity="1" fill="#000000" fill-opacity="1"></use><g><use xlink:href="#a2xDCMiR61" opacity="1" fill-opacity="0" stroke="#000000" stroke-width="1" stroke-opacity="0"></use></g></g><g><use xlink:href="#bZYOHUa0N" opacity="1" fill="#000000" fill-opacity="1"></use><g><use xlink:href="#bZYOHUa0N" opacity="1" fill-opacity="0" stroke="#000000" stroke-width="1" stroke-opacity="0"></use></g></g><g><use xlink:href="#a2PoYqltmX" opacity="1" fill="#000000" fill-opacity="1"></use><g><use xlink:href="#a2PoYqltmX" opacity="1" fill-opacity="0" stroke="#000000" stroke-width="1" stroke-opacity="0"></use></g></g><g><use xlink:href="#a2x2cR363Q" opacity="1" fill="#000000" fill-opacity="1"></use><g><use xlink:href="#a2x2cR363Q" opacity="1" fill-opacity="0" stroke="#000000" stroke-width="1" stroke-opacity="0"></use></g></g><g><use xlink:href="#devuKXD0z" opacity="1" fill="#000000" fill-opacity="1"></use><g><use xlink:href="#devuKXD0z" opacity="1" fill-opacity="0" stroke="#000000" stroke-width="1" stroke-opacity="0"></use></g></g><g><use xlink:href="#gdKEZeTyh" opacity="1" fill="#000000" fill-opacity="1"></use><g><use xlink:href="#gdKEZeTyh" opacity="1" fill-opacity="0" stroke="#000000" stroke-width="1" stroke-opacity="0"></use></g></g><g><use xlink:href="#a44IjXs8fS" opacity="1" fill="#2196f3" fill-opacity="1"></use><g><use xlink:href="#a44IjXs8fS" opacity="1" fill-opacity="0" stroke="#000000" stroke-width="1" stroke-opacity="0"></use></g></g><g><use xlink:href="#b7zZrhNM9O" opacity="1" fill="#000000" fill-opacity="1"></use></g></g></g></svg>